<?xml version="1.0" encoding="UTF-8"?>
<!-- Created with Inkscape (http://www.inkscape.org/) -->
<svg width="648" height="648" version="1.1" viewBox="0 0 648 648" xmlns="http://www.w3.org/2000/svg">
 <path d="m4.9847 340.76c-0.0084408-138.74-0.045596-261.18-0.082568-272.09-0.036972-10.909 0.13171-20.033 0.37486-20.276 0.65449-0.65448 275.85 275.74 275.51 276.71-0.39059 1.1242-30.989 31.901-31.716 31.901-0.31679 0-44.648-44.074-98.514-97.942-53.866-53.868-98.19-97.786-98.498-97.595-0.30811 0.19049-0.5602 86.677-0.5602 192.19v191.85l48.5 0.53556v-135.02c0-74.26 0.11751-135.02 0.26114-135.02 0.51446 0 115.23 114.97 115.47 115.73 0.13477 0.42482-7.0998 8.1247-16.077 17.111l-16.322 16.338-17.916-17.484c-9.8536-9.6163-18.141-17.718-18.416-18.005-0.275-0.28627-0.5437 45.229-0.59711 101.15l-0.09711 101.67-141.31 0.51342zm469.47 250.99c-0.26553-0.69198-0.36391-46.817-0.21861-102.5s0.0689-101.24-0.16977-101.24-14.732 14.513-32.207 32.25l-31.773 32.25-16.043-16.197c-8.8237-8.9081-16.043-16.775-16.043-17.481 0-0.70653 10.012-11.217 22.25-23.356s44.3-44.221 71.25-71.293l49-49.222 0.25358 135.52 0.25359 135.52h48.961l-0.3679-150.5c-0.20235-82.775-0.0826-150.43 0.26605-150.35 0.34868 0.0843 10.856 10.547 23.349 23.25l22.715 23.097 0.45497 148c0.25023 81.4 0.20984 149.24-0.0898 150.75l-0.54468 2.75h-70.406c-55.646 0-70.508-0.26377-70.889-1.2582zm-165.95-41.616c-1.65-1.5057-23.861-23.717-49.358-49.359-43.541-43.789-46.272-46.743-44.954-48.625 1.4542-2.0761 135.01-137.06 245.77-248.41 34.904-35.088 63.806-64.344 64.225-65.012 0.49867-0.79422-7.9335-9.9234-24.326-26.336-13.799-13.816-24.7-25.345-24.225-25.618 0.47495-0.27342 5.1385-1.5063 10.364-2.7397s12.2-2.92 15.5-3.748c3.3-0.82795 7.125-1.7125 8.5-1.9657s8.8-1.9487 16.5-3.7677 17.375-4.0611 21.5-4.9823c4.125-0.92121 14.025-3.247 22-5.1683 36.726-8.8481 49.39-11.828 57-13.411 3.025-0.62941 7.6666-1.8278 10.315-2.6632s5.0546-1.279 5.3477-0.9859c0.29308 0.29308 8e-3 2.9264-0.63311 5.8519-0.64129 2.9255-1.5566 7.569-2.0341 10.319-1.9746 11.374-6.1997 33.96-9.0102 48.166-1.6502 8.3414-3.6368 18.691-4.4146 23-0.77783 4.3086-2.8239 15.034-4.5468 23.834-2.626 13.412-8.518 45.367-10.55 57.215-0.30322 1.7682-1.035 3.5138-1.6261 3.8792-0.60224 0.37221-12.14-10.395-26.242-24.488l-25.167-25.152-32.366 32.773c-17.801 18.025-80.563 81.322-139.47 140.66-58.907 59.337-107.1 108.43-107.1 109.11s7.08 8.5124 15.733 17.425l15.733 16.205 36.082-36.62 11.568 12c6.3623 6.6 13.74 14.25 16.394 17l4.8265 5-68.338 69.364z"/>
</svg>
